<?xml version="1.0" standalone="no"?>
<!DOCTYPE svg PUBLIC "-//W3C//DTD SVG 20010904//EN"
 "http://www.w3.org/TR/2001/REC-SVG-20010904/DTD/svg10.dtd">
<svg version="1.0" xmlns="http://www.w3.org/2000/svg"
 width="700.000000pt" height="700.000000pt" viewBox="0 0 700.000000 700.000000"
 preserveAspectRatio="xMidYMid meet">
<metadata>
Created by potrace 1.14, written by Peter Selinger 2001-2017
</metadata>
<g transform="translate(0.000000,700.000000) scale(0.100000,-0.100000)"
fill="#000000" stroke="none">
<path d="M0 3482 l0 -2557 2553 0 c1990 0 2553 3 2557 12 3 7 5 109 4 226 l0
214 930 1 c512 0 937 1 944 1 9 1 12 154 12 730 l0 729 -912 1 c-502 0 -927 0
-944 0 l-31 1 -1 1583 c0 870 -1 1590 -1 1599 -1 16 -162 17 -2556 17 l-2555
0 0 -2557z"/>
</g>
</svg>
